# xmcd CD database file
#
# Track frame offsets:
#	150
#	18405
#	32647
#	50025
#	74615
#	88620
#	109635
#	130814
#	146314
#	158811
#	181003
#	202814
#	222188
#	233057
#	245460
#
# Disc length: 3688 seconds
#
# Revision: 1
# Processed by: cddbd v1.5.2PL0 Copyright (c) Steve Scherf et al.
# Submitted via: CDex 1.51
#
DISCID=c60e660f
DTITLE=Nina Simone - JAZZ and BLUES
DYEAR=1900
DGENRE=Jazz
TTITLE0=01. Mood Indigo
TTITLE1=02. African Mailman
TTITLE2=03. Don`t Let Me Be Misunderstood
TTITLE3=04. Good Bait
TTITLE4=05. Central Park Blues
TTITLE5=06. Ain`t No Use
TTITLE6=07. Blues
TTITLE7=08. I Want A Little Sugar In My Bowl
TTITLE8=09. Blacklash Blues
TTITLE9=10. Gin House Blues
TTITLE10=11. Four Women
TTITLE11=12. Little Girl Blue
TTITLE12=13. Sunday In Savannah
TTITLE13=14. I`ll Look Around
TTITLE14=15. House Of The Rising Sun
EXTD=
EXTT0=
EXTT1=
EXTT2=
EXTT3=
EXTT4=
EXTT5=
EXTT6=
EXTT7=
EXTT8=
EXTT9=
EXTT10=
EXTT11=
EXTT12=
EXTT13=
EXTT14=
PLAYORDER=
